<svg width="409" height="128" viewBox="0 0 409 128" fill="none" xmlns="http://www.w3.org/2000/svg">
<g clip-path="url(#clip0_236_653)">
<mask id="mask0_236_653" style="mask-type:luminance" maskUnits="userSpaceOnUse" x="0" y="0" width="409" height="128">
<path d="M408.49 0H0V127.98H408.49V0Z" fill="white"/>
</mask>
<g mask="url(#mask0_236_653)">
<path d="M407.012 37.7993C403.306 27.2234 393.207 19.6289 381.345 19.6289H381.097C373.386 19.6289 366.436 22.8325 361.489 27.9752C356.534 22.8325 349.585 19.6289 341.882 19.6289H341.634C334.856 19.6289 328.66 22.1063 323.901 26.2068V24.1224C323.738 22.0465 322.027 20.4148 319.913 20.4148H301.718C299.493 20.4148 297.695 22.2088 297.695 24.4385V123.064C297.695 125.294 299.493 127.088 301.718 127.088H319.913C321.941 127.088 323.61 125.576 323.875 123.619L323.867 52.8175C323.867 52.5698 323.875 52.3391 323.901 52.1084C324.192 48.9476 326.512 46.3507 330.174 46.026H330.851H332.759H333.529C335.061 46.1627 336.353 46.7009 337.372 47.5124C338.955 48.7682 339.836 50.6989 339.836 52.8175L339.905 123.27C339.905 125.499 341.711 127.302 343.928 127.302H362.123C364.271 127.302 366.017 125.593 366.12 123.466L366.111 52.7235C366.102 50.3999 367.181 48.2984 369.073 47.0512C370.005 46.4531 371.126 46.0516 372.419 45.932H373.094H375.003H375.773C379.711 46.2737 382.09 49.2552 382.081 52.7235L382.15 123.082C382.15 125.311 383.955 127.105 386.172 127.105H404.367C406.584 127.105 408.389 125.311 408.389 123.082V47.41C408.389 42.2501 407.807 40.0546 407.012 37.7993Z" fill="#54C1F0"/>
<path d="M283.834 20.6742H273.427V3.84499C273.427 3.82791 273.427 3.81083 273.427 3.79375C273.427 1.76911 271.784 0.128906 269.755 0.128906C269.515 0.128906 269.285 0.163076 269.062 0.205789C257.525 3.3666 259.836 19.3159 238.774 20.6742H238.303H236.729C236.42 20.6742 236.129 20.717 235.847 20.7767C234.05 21.1782 232.697 22.7757 232.697 24.6893V42.8512C232.697 45.0638 234.503 46.8663 236.729 46.8663H247.709L247.692 123.879C247.692 126.075 249.472 127.851 251.671 127.851H269.661C271.852 127.851 273.632 126.075 273.632 123.879L273.64 46.8663H283.834C286.05 46.8663 287.856 45.0638 287.856 42.8512V24.6893C287.856 22.4768 286.05 20.6742 283.834 20.6742Z" fill="#54C1F0"/>
<path d="M218.37 20.6719H200.175C197.959 20.6719 196.162 22.4744 196.162 24.687V62.2409C196.119 64.5645 194.236 66.4268 191.899 66.4268H184.282C181.92 66.4268 180.012 64.5303 180.012 62.1725L179.943 24.687C179.943 22.4744 178.138 20.6719 175.921 20.6719H157.726C155.5 20.6719 153.703 22.4744 153.703 24.687V65.8459C153.703 81.4791 164.872 92.6272 180.543 92.6272C180.543 92.6272 192.302 92.6272 192.661 92.6959C194.783 92.9351 196.436 94.7116 196.436 96.899C196.436 99.0602 194.818 100.829 192.721 101.093C192.618 101.11 192.524 101.136 192.413 101.153L165.805 101.247C163.58 101.247 161.783 103.05 161.783 105.262V123.415C161.783 125.636 163.58 127.43 165.805 127.43H195.554C211.233 127.43 222.393 116.291 222.393 100.649V24.687C222.393 22.4744 220.596 20.6719 218.37 20.6719Z" fill="#233266"/>
<path d="M42.2545 53.9505V62.4249V65.1586C42.2545 67.5077 40.346 69.4217 37.9924 69.4217L26.4472 69.4298V46.9711H37.9924C40.346 46.9711 42.2545 48.8676 42.2545 51.2253V53.9505ZM43.8549 20.668H4.08409C1.9017 20.668 0.138672 22.4363 0.138672 24.6061V42.4007C0.138672 42.4349 0.14723 42.4691 0.14723 42.5032C0.14723 42.5886 0.138672 42.6741 0.138672 42.7509V99.825V123.292C0.138672 125.479 1.78188 127.264 3.81878 127.315H4.16111H22.3562C24.5729 127.315 26.3787 125.521 26.3787 123.3L26.4472 95.6987H43.8549C58.4213 95.6987 68.5712 85.6096 68.5712 71.0102V45.3907C68.5712 30.7911 58.4213 20.668 43.8549 20.668Z" fill="#233266"/>
<path d="M117.75 96.5901V99.4263C117.75 99.6574 117.715 99.8791 117.681 100.093C117.638 100.298 117.578 100.494 117.51 100.682C116.945 102.271 115.353 103.425 113.462 103.425H105.887C103.526 103.425 101.599 101.631 101.599 99.4263V96.0007C101.599 95.9582 101.591 95.9158 101.591 95.8727L101.599 86.7577V86.7409V85.7324V83.9047L101.608 83.8791C101.617 81.6835 103.526 79.9063 105.887 79.9063H113.462C115.832 79.9063 117.75 81.6916 117.75 83.9047V96.5901ZM114.857 20.7734H89.6095C87.3755 20.7734 85.5701 22.4649 85.5701 24.5408V31.6057C85.5701 31.6484 85.5782 31.6997 85.5782 31.7424C85.5782 31.7936 85.5701 31.8448 85.5701 31.8961V41.5751C85.5701 43.7705 87.4869 45.5645 89.8491 45.5645H113.89C115.79 45.8635 117.296 47.2474 117.51 49.4087V51.7494C117.296 53.8083 115.806 55.3118 113.992 55.4827H102.087C86.2545 55.4827 74.9746 65.9817 74.9746 80.7262V101.306V101.844C74.9746 116.504 84.6711 126.934 100.393 126.934H133.385C139.308 126.934 144.109 122.458 144.109 116.948V48.0333C144.109 31.3237 135.482 20.7734 114.857 20.7734Z" fill="#233266"/>
</g>
</g>
<defs>
<clipPath id="clip0_236_653">
<rect width="409" height="128" fill="white"/>
</clipPath>
</defs>
</svg>
