<svg width="244" height="32" viewBox="0 0 244 32" fill="none" xmlns="http://www.w3.org/2000/svg">
<g clip-path="url(#clip0_553_733)">
<mask id="mask0_553_733" style="mask-type:luminance" maskUnits="userSpaceOnUse" x="0" y="0" width="245" height="32">
<path d="M244.438 0H0V32H244.438V0Z" fill="white" style="fill:white;fill-opacity:1;"/>
</mask>
<g mask="url(#mask0_553_733)">
<path d="M26.8397 18.0407C37.0907 16.9724 37.0727 3.58646 26.3046 2.77125L1.0195 2.78614L0 0.450305L0.620017 0.163676C8.97668 0.589896 17.8142 -0.376078 26.1148 0.174844C39.0755 1.03473 41.3459 16.1776 29.2474 20.1495L24.9417 20.8307L39.2201 31.8138H34.7914C29.5113 27.3506 23.7504 23.4755 18.4505 19.0458C18.1522 18.7964 17.5069 18.4539 17.5286 18.0407C20.5112 17.8137 23.9059 18.346 26.8379 18.0407H26.8397Z" fill="#CD4631" style="fill:#CD4631;fill:color(display-p3 0.8039 0.2745 0.1922);fill-opacity:1;"/>
<path d="M22.4111 9.10938L23.1341 11.529H3.88288L3.61174 11.8081V31.8163H1.08105V9.10938H22.4111Z" fill="#CD4631" style="fill:#CD4631;fill:color(display-p3 0.8039 0.2745 0.1922);fill-opacity:1;"/>
<path d="M10.5712 18.4141L27.6533 31.8149H23.0438C17.5739 27.2139 11.7082 23.1043 6.32324 18.4141H10.5712Z" fill="#CD4631" style="fill:#CD4631;fill:color(display-p3 0.8039 0.2745 0.1922);fill-opacity:1;"/>
</g>
<rect x="48.5" y="0.5" width="195" height="31" stroke="#222222" style="stroke:#222222;stroke:color(display-p3 0.1333 0.1333 0.1333);stroke-opacity:1;"/>
<path d="M53 23.6761V5.25189H59.2111C60.6471 5.25189 61.8259 5.49779 62.7474 5.98958C63.6689 6.47538 64.351 7.1441 64.7938 7.99574C65.2366 8.84738 65.458 9.81597 65.458 10.9015C65.458 11.9871 65.2366 12.9497 64.7938 13.7893C64.351 14.6289 63.6719 15.2887 62.7564 15.7685C61.8409 16.2423 60.6711 16.4792 59.247 16.4792H54.2207V14.464H59.1752C60.1565 14.464 60.9463 14.3201 61.5447 14.0322C62.149 13.7443 62.5859 13.3365 62.8551 12.8087C63.1304 12.2749 63.268 11.6392 63.268 10.9015C63.268 10.1638 63.1304 9.5191 62.8551 8.96733C62.5799 8.41556 62.1401 7.98974 61.5357 7.68987C60.9314 7.384 60.1325 7.23106 59.1393 7.23106H55.2259V23.6761H53ZM61.6524 15.3996L66.1761 23.6761H63.5911L59.1393 15.3996H61.6524Z" fill="#222222" style="fill:#222222;fill:color(display-p3 0.1333 0.1333 0.1333);fill-opacity:1;"/>
<path d="M75.7387 23.6761V5.25189H86.8324V7.23106H77.9646V13.4564H86.258V15.4356H77.9646V21.697H86.976V23.6761H75.7387Z" fill="#222222" style="fill:#222222;fill:color(display-p3 0.1333 0.1333 0.1333);fill-opacity:1;"/>
<path d="M98.1699 5.25189L103.627 20.7614H103.842L109.3 5.25189H111.633L104.884 23.6761H102.586L95.8363 5.25189H98.1699Z" fill="#222222" style="fill:#222222;fill:color(display-p3 0.1333 0.1333 0.1333);fill-opacity:1;"/>
<path d="M121.068 23.6761V5.25189H123.294V21.697H131.839V23.6761H121.068Z" fill="#222222" style="fill:#222222;fill:color(display-p3 0.1333 0.1333 0.1333);fill-opacity:1;"/>
<path d="M139.413 5.25189H141.962L147.06 13.8523H147.276L152.374 5.25189H154.923L148.281 16.0833V23.6761H146.055V16.0833L139.413 5.25189Z" fill="#222222" style="fill:#222222;fill:color(display-p3 0.1333 0.1333 0.1333);fill-opacity:1;"/>
<path d="M164.528 7.23106V5.25189H178.314V7.23106H172.534V23.6761H170.308V7.23106H164.528Z" fill="#222222" style="fill:#222222;fill:color(display-p3 0.1333 0.1333 0.1333);fill-opacity:1;"/>
<path d="M190.547 9.42614V22.7246H188.321V9.42614H190.547Z" fill="#222222" style="fill:#222222;fill:color(display-p3 0.1333 0.1333 0.1333);fill-opacity:1;"/>
<path d="M216.374 11.0095H214.148C214.016 10.3677 213.786 9.80398 213.456 9.31818C213.133 8.83239 212.738 8.42456 212.272 8.0947C211.811 7.75884 211.299 7.50695 210.737 7.33902C210.174 7.17109 209.588 7.08712 208.978 7.08712C207.865 7.08712 206.856 7.369 205.953 7.93277C205.055 8.49653 204.34 9.32718 203.808 10.4247C203.281 11.5223 203.018 12.8687 203.018 14.464C203.018 16.0593 203.281 17.4058 203.808 18.5033C204.34 19.6009 205.055 20.4315 205.953 20.9953C206.856 21.559 207.865 21.8409 208.978 21.8409C209.588 21.8409 210.174 21.7569 210.737 21.589C211.299 21.4211 211.811 21.1722 212.272 20.8423C212.738 20.5065 213.133 20.0956 213.456 19.6098C213.786 19.1181 214.016 18.5543 214.148 17.9186H216.374C216.206 18.8602 215.901 19.7028 215.458 20.4465C215.015 21.1902 214.465 21.8229 213.807 22.3447C213.148 22.8605 212.409 23.2533 211.59 23.5232C210.776 23.7931 209.905 23.928 208.978 23.928C207.41 23.928 206.016 23.5442 204.795 22.7765C203.574 22.0088 202.614 20.9173 201.914 19.5019C201.214 18.0865 200.864 16.4072 200.864 14.464C200.864 12.5208 201.214 10.8415 201.914 9.42614C202.614 8.01073 203.574 6.91919 204.795 6.15152C206.016 5.38384 207.41 5 208.978 5C209.905 5 210.776 5.13494 211.59 5.40483C212.409 5.67472 213.148 6.07055 213.807 6.59233C214.465 7.10811 215.015 7.73785 215.458 8.48153C215.901 9.21922 216.206 10.0619 216.374 11.0095Z" fill="#222222" style="fill:#222222;fill:color(display-p3 0.1333 0.1333 0.1333);fill-opacity:1;"/>
<path d="M236.595 9.85795C236.487 8.94634 236.05 8.23864 235.284 7.73485C234.518 7.23106 233.579 6.97917 232.466 6.97917C231.652 6.97917 230.94 7.11111 230.33 7.375C229.725 7.63889 229.253 8.00174 228.912 8.46354C228.576 8.92535 228.409 9.45013 228.409 10.0379C228.409 10.5297 228.526 10.9525 228.759 11.3063C228.998 11.6542 229.303 11.9451 229.674 12.179C230.045 12.4069 230.434 12.5958 230.841 12.7457C231.248 12.8897 231.622 13.0066 231.963 13.0966L233.83 13.6004C234.309 13.7263 234.841 13.9003 235.428 14.1222C236.02 14.3441 236.586 14.6469 237.124 15.0308C237.669 15.4086 238.117 15.8944 238.47 16.4882C238.823 17.0819 239 17.8106 239 18.6742C239 19.6698 238.74 20.5694 238.219 21.3731C237.705 22.1768 236.951 22.8155 235.957 23.2893C234.97 23.7631 233.77 24 232.358 24C231.042 24 229.902 23.7871 228.938 23.3613C227.981 22.9354 227.227 22.3417 226.677 21.58C226.132 20.8183 225.824 19.9337 225.752 18.9261H228.05C228.11 19.6218 228.343 20.1976 228.75 20.6534C229.163 21.1032 229.683 21.4391 230.312 21.661C230.946 21.8769 231.628 21.9848 232.358 21.9848C233.208 21.9848 233.971 21.8469 234.647 21.571C235.323 21.2891 235.859 20.8993 236.253 20.4015C236.648 19.8977 236.846 19.31 236.846 18.6383C236.846 18.0265 236.675 17.5287 236.334 17.1449C235.993 16.761 235.544 16.4492 234.988 16.2093C234.431 15.9694 233.83 15.7595 233.184 15.5795L230.922 14.9318C229.486 14.518 228.349 13.9272 227.511 13.1596C226.674 12.3919 226.255 11.3873 226.255 10.1458C226.255 9.11427 226.533 8.21465 227.089 7.44697C227.652 6.6733 228.406 6.07355 229.351 5.64773C230.303 5.21591 231.365 5 232.538 5C233.722 5 234.776 5.21291 235.697 5.63873C236.618 6.05855 237.349 6.63431 237.887 7.366C238.432 8.0977 238.719 8.92835 238.749 9.85795H236.595Z" fill="#222222" style="fill:#222222;fill:color(display-p3 0.1333 0.1333 0.1333);fill-opacity:1;"/>
<circle cx="189.394" cy="6.125" r="1.125" fill="#CD4631" style="fill:#CD4631;fill:color(display-p3 0.8039 0.2745 0.1922);fill-opacity:1;"/>
</g>
<defs>
<clipPath id="clip0_553_733">
<rect width="244" height="32" fill="white" style="fill:white;fill-opacity:1;"/>
</clipPath>
</defs>
</svg>
